HIERARCHY
ROOT Hips
{
	OFFSET 0.000000 0.000000 0.000000
	CHANNELS 6 Xposition Yposition Zposition Zrotation Yrotation Xrotation 
	JOINT LHipJoint
	{
		OFFSET 0.000000 0.000000 0.000000
		CHANNELS 3 Zrotation Yrotation Xrotation
		JOINT LeftUpLeg
		{
			OFFSET 1.363060 -1.794630 0.839290
			CHANNELS 3 Zrotation Yrotation Xrotation
			JOINT LeftLeg
			{
				OFFSET 2.448110 -6.726130 0.000000
				CHANNELS 3 Zrotation Yrotation Xrotation
				JOINT LeftFoot
				{
					OFFSET 2.562200 -7.039590 0.000000
					CHANNELS 3 Zrotation Yrotation Xrotation
					JOINT LeftToeBase
					{
						OFFSET 0.157640 -0.433110 2.322550
						CHANNELS 3 Zrotation Yrotation Xrotation
						End Site
						{
							OFFSET 0.000000 0.000000 0.000000
						}
					}
				}
			}
		}
	}
	JOINT RHipJoint
	{
		OFFSET 0.000000 0.000000 0.000000
		CHANNELS 3 Zrotation Yrotation Xrotation
		JOINT RightUpLeg
		{
			OFFSET -1.305520 -1.794630 0.839290
			CHANNELS 3 Zrotation Yrotation Xrotation
			JOINT RightLeg
			{
				OFFSET -2.542530 -6.985550 0.000000
				CHANNELS 3 Zrotation Yrotation Xrotation
				JOINT RightFoot
				{
					OFFSET -2.568260 -7.056230 0.000000
					CHANNELS 3 Zrotation Yrotation Xrotation
					JOINT RightToeBase
					{
						OFFSET -0.164730 -0.452590 2.363150
						CHANNELS 3 Zrotation Yrotation Xrotation
						End Site
						{
							OFFSET 0.000000 0.000000 0.000000
						}
					}
				}
			}
		}
	}
	JOINT LowerBack
	{
		OFFSET 0.000000 0.000000 0.000000
		CHANNELS 3 Zrotation Yrotation Xrotation
		JOINT Spine
		{
			OFFSET 0.028270 2.035590 -0.193380
			CHANNELS 3 Zrotation Yrotation Xrotation
			JOINT Spine1
			{
				OFFSET 0.056720 2.048850 -0.042750
				CHANNELS 3 Zrotation Yrotation Xrotation
				JOINT Neck
				{
					OFFSET 0.000000 0.000000 0.000000
					CHANNELS 3 Zrotation Yrotation Xrotation
					JOINT Neck1
					{
						OFFSET -0.054170 1.746240 0.172020
						CHANNELS 3 Zrotation Yrotation Xrotation
						JOINT Head
						{
							OFFSET 0.104070 1.761360 -0.123970
							CHANNELS 3 Zrotation Yrotation Xrotation
							End Site
							{
								OFFSET 0.000000 0.000000 0.000000
							}
						}
					}
				}
				JOINT LeftShoulder
				{
					OFFSET 0.000000 0.000000 0.000000
					CHANNELS 3 Zrotation Yrotation Xrotation
					JOINT LeftArm
					{
						OFFSET 3.362410 1.200890 -0.311210
						CHANNELS 3 Zrotation Yrotation Xrotation
						JOINT LeftForeArm
						{
							OFFSET 4.983000 -0.000000 -0.000000
							CHANNELS 3 Zrotation Yrotation Xrotation
							JOINT LeftHand
							{
								OFFSET 3.483560 -0.000000 -0.000000
								CHANNELS 3 Zrotation Yrotation Xrotation
								JOINT LeftFingerBase
								{
									OFFSET 0.000000 0.000000 0.000000
									CHANNELS 3 Zrotation Yrotation Xrotation
									JOINT LeftHandIndex1
									{
										OFFSET 0.715260 -0.000000 -0.000000
										CHANNELS 3 Zrotation Yrotation Xrotation
										End Site
										{
											OFFSET 0.000000 0.000000 0.000000
										}
									}
								}
								JOINT LThumb
								{
									OFFSET 0.000000 0.000000 0.000000
									CHANNELS 3 Zrotation Yrotation Xrotation
									End Site
									{
										OFFSET 0.000000 0.000000 0.000000
									}
								}
							}
						}
					}
				}
				JOINT RightShoulder
				{
					OFFSET 0.000000 0.000000 0.000000
					CHANNELS 3 Zrotation Yrotation Xrotation
					JOINT RightArm
					{
						OFFSET -3.136600 1.374050 -0.404650
						CHANNELS 3 Zrotation Yrotation Xrotation
						JOINT RightForeArm
						{
							OFFSET -5.241900 -0.000000 -0.000000
							CHANNELS 3 Zrotation Yrotation Xrotation
							JOINT RightHand
							{
								OFFSET -3.444170 -0.000000 -0.000000
								CHANNELS 3 Zrotation Yrotation Xrotation
								JOINT RightFingerBase
								{
									OFFSET 0.000000 0.000000 0.000000
									CHANNELS 3 Zrotation Yrotation Xrotation
									JOINT RightHandIndex1
									{
										OFFSET -0.622530 -0.000000 -0.000000
										CHANNELS 3 Zrotation Yrotation Xrotation
										End Site
										{
											OFFSET 0.000000 0.000000 0.000000
										}
									}
								}
								JOINT RThumb
								{
									OFFSET 0.000000 0.000000 0.000000
									CHANNELS 3 Zrotation Yrotation Xrotation
									End Site
									{
										OFFSET 0.000000 0.000000 0.000000
									}
								}
							}
						}
					}
				}
			}
		}
	}
}
MOTION
Frames: 5
Frame Time: 0.008333
0.044345 17.856378 -0.339246 27.889996 81.082891 46.152975 -12.058570 4.771872 -0.691371 -6.510680 18.221729 -5.952189 -2.322070 0.764671 10.127478 0.105762 -10.727938 23.922729 -5.150500 -0.000000 -69.925200 8.531695 -1.122327 5.829173 6.454698 12.386622 -34.820312 2.294015 0.142178 11.195917 0.327308 1.160494 4.628192 -0.409301 0.000000 -45.971400 1.384180 -5.924197 -5.651232 0.906534 -6.116256 -4.186950 -3.767324 -6.289164 -1.218633 7.732670 -18.846194 -9.430709 -2.442583 -0.171744 -0.385853 0.000000 0.000000 0.000000 11.066052 0.943495 -1.897045 -84.125901 -4.604437 32.382236 179.304936 -65.272917 179.820656 16.152721 -17.191251 -2.701399 -0.437718 1.253917 0.000000 0.000000 0.000000 0.000000 0.000000 0.000000 0.000000 3.156866 -15.700401 -0.681013 68.604935 -15.982997 23.301417 179.836408 73.481229 179.939269 -7.819072 23.164769 -1.677860 0.081151 -0.792558 0.000000 0.000000 0.000000 0.000000 0.000000 0.000000 0.000000 
0.279107 17.898672 -0.262147 26.938284 80.574823 45.110121 -12.126077 4.905506 -0.804202 -5.945877 19.155555 -5.383589 -2.277411 0.806800 10.164492 0.204171 -10.939366 25.405570 -5.536000 0.000000 -68.234000 8.511665 -1.191010 5.948568 7.215027 12.175332 -34.416522 2.561617 0.371973 8.317587 0.617816 2.275897 6.744406 -0.132599 -0.000000 -47.600900 1.305450 -6.054968 -5.732125 0.921765 -6.241949 -4.197895 -3.700258 -6.421652 -1.167648 7.725175 -19.298192 -9.532922 -2.327738 -0.161494 -0.407303 0.000000 0.000000 0.000000 11.256865 0.759711 -1.949984 -84.211443 -3.835827 32.224240 179.221826 -65.320644 179.823419 15.806401 -16.631463 -2.555253 -0.417783 1.225918 -0.000000 0.000000 0.000000 0.000000 0.000000 0.000000 0.000000 2.692305 -16.126828 -0.693798 68.544386 -16.227403 22.903679 179.819406 72.810942 179.939620 -7.680733 23.123526 -1.645390 0.079484 -0.797396 0.000000 0.000000 0.000000 0.000000 0.000000 0.000000 0.000000 
0.512341 17.929699 -0.184505 26.077346 80.040360 44.138717 -12.152896 5.030060 -0.861241 -5.446182 19.719255 -4.788390 -2.204184 0.846811 10.407638 0.292952 -10.422615 26.313697 -5.464200 0.000000 -66.236000 8.502789 -1.242315 5.993562 8.135840 11.747845 -34.080705 2.813996 0.569284 5.899407 0.853163 3.217962 8.621350 0.162199 -0.000000 -49.082100 1.211818 -6.168467 -5.790587 0.925825 -6.348949 -4.203846 -3.656827 -6.533369 -1.120596 7.743324 -19.700026 -9.629398 -2.223976 -0.152093 -0.428029 0.000000 0.000000 0.000000 11.377806 0.627774 -1.988355 -84.241678 -3.099263 32.053552 179.164138 -65.438628 179.827245 15.409319 -16.084764 -2.407026 -0.397122 1.197799 -0.000000 0.000000 0.000000 0.000000 0.000000 0.000000 0.000000 2.304688 -16.490061 -0.709053 68.493602 -16.476796 22.440278 179.802569 72.140893 179.939857 -7.538781 23.122256 -1.615122 0.077485 -0.803358 0.000000 0.000000 0.000000 0.000000 0.000000 0.000000 0.000000 
0.743728 17.949714 -0.106715 25.241321 79.480512 43.170593 -12.144688 5.143403 -0.867881 -5.011100 19.918164 -4.166359 -2.100347 0.887847 10.861313 0.373333 -9.217271 26.675546 -4.945399 -0.000000 -63.998700 8.496628 -1.285916 5.966716 9.221038 11.139621 -33.779718 3.044794 0.735606 3.902134 1.025070 3.887749 10.291501 0.416200 0.000000 -50.434500 1.113603 -6.263852 -5.820892 0.919939 -6.437211 -4.204413 -3.639633 -6.624160 -1.079434 7.791903 -20.040846 -9.716954 -2.134717 -0.143884 -0.447197 0.000000 0.000000 0.000000 11.423569 0.550456 -2.010460 -84.211968 -2.397178 31.865500 179.132511 -65.632078 179.831963 14.974595 -15.571887 -2.262406 -0.376237 1.170298 -0.000000 0.000000 0.000000 0.000000 0.000000 0.000000 0.000000 2.010933 -16.781490 -0.727392 68.447495 -16.726368 21.904088 179.784885 71.482319 179.940061 -7.388436 23.158380 -1.585653 0.075149 -0.810221 0.000000 0.000000 0.000000 0.000000 0.000000 0.000000 0.000000 
0.972883 17.958824 -0.028887 24.432967 78.893687 42.204280 -12.104466 5.243143 -0.831797 -4.651109 19.772154 -3.516819 -1.967366 0.931147 11.523460 0.451842 -7.424954 26.551653 -4.055300 0.000000 -61.666200 8.490591 -1.329658 5.871884 10.449301 10.380248 -33.487953 3.247452 0.870840 2.298194 1.129435 4.211527 11.765691 0.575700 0.000000 -51.570600 1.009089 -6.342290 -5.817484 0.903625 -6.507716 -4.198686 -3.649654 -6.694945 -1.045003 7.874216 -20.313831 -9.792945 -2.062252 -0.137115 -0.464079 0.000000 0.000000 0.000000 11.399477 0.528154 -2.016759 -84.122676 -1.730344 31.655919 179.125306 -65.902449 179.837316 14.520960 -15.109467 -2.126684 -0.355726 1.143934 -0.000000 0.000000 0.000000 0.000000 0.000000 0.000000 0.000000 1.822227 -16.997103 -0.749818 68.406075 -16.970027 21.290937 179.765741 70.844250 179.940284 -7.229547 23.225167 -1.556186 0.072550 -0.817716 0.000000 0.000000 0.000000 0.000000 0.000000 0.000000 0.000000 
